<svg width="72" height="72" viewBox="0 0 72 72" fill="none" xmlns="http://www.w3.org/2000/svg">
<g filter="url(#filter0_b_163_272)">
<rect width="72" height="72" rx="36" fill="white"/>
<rect x="0.5" y="0.5" width="71" height="71" rx="35.5" stroke="#3C7098"/>
<path d="M29.7583 38.4651L28.9778 41.5365L26.1252 41.6001C25.2726 39.9333 24.7891 38.0262 24.7891 35.9995C24.7891 34.0398 25.2412 32.1917 26.0426 30.5645H26.0432L28.5829 31.0553L29.6955 33.7164C29.4626 34.432 29.3357 35.2002 29.3357 35.9995C29.3358 36.8671 29.4849 37.6982 29.7583 38.4651Z" fill="#FBBB00"/>
<path d="M47.0159 33.792C47.1447 34.5069 47.2118 35.2452 47.2118 35.9998C47.2118 36.8459 47.1274 37.6712 46.9667 38.4673C46.4209 41.1764 44.9948 43.542 43.0193 45.216L43.0187 45.2154L39.8199 45.0433L39.3671 42.0641C40.678 41.2537 41.7024 39.9855 42.242 38.4673H36.2471V33.792H42.3295H47.0159Z" fill="#518EF8"/>
<path d="M43.0182 45.2158L43.0188 45.2164C41.0975 46.8444 38.6569 47.8184 36.0001 47.8184C31.7306 47.8184 28.0186 45.3028 26.125 41.6009L29.7582 38.4658C30.705 41.1294 33.1425 43.0256 36.0001 43.0256C37.2284 43.0256 38.3791 42.6755 39.3665 42.0645L43.0182 45.2158Z" fill="#28B446"/>
<path d="M43.1567 26.9024L39.5248 30.0368C38.5028 29.3635 37.2948 28.9745 36.0006 28.9745C33.0783 28.9745 30.5952 30.9576 29.6959 33.7167L26.0436 30.5648H26.043C27.9088 26.7725 31.6677 24.1816 36.0006 24.1816C38.7209 24.1816 41.2151 25.2031 43.1567 26.9024Z" fill="#F14336"/>
</g>
<defs>
<filter id="filter0_b_163_272" x="-4" y="-4" width="80" height="80" filterUnits="userSpaceOnUse" color-interpolation-filters="sRGB">
<feFlood flood-opacity="0" result="BackgroundImageFix"/>
<feGaussianBlur in="BackgroundImageFix" stdDeviation="2"/>
<feComposite in2="SourceAlpha" operator="in" result="effect1_backgroundBlur_163_272"/>
<feBlend mode="normal" in="SourceGraphic" in2="effect1_backgroundBlur_163_272" result="shape"/>
</filter>
</defs>
</svg>
